<svg xmlns="http://www.w3.org/2000/svg" width="18.741" height="16.225" viewBox="0 0 18.741 16.225">
  <defs>
    <style>
      .cls-1 {
        fill: #f2f2f2;
      }
    </style>
  </defs>
  <path id="account-settings-svgrepo-com" class="cls-1" d="M9.107,3.32a3.6,3.6,0,1,0,2.552,1.051A3.61,3.61,0,0,0,9.107,3.32M15.419,10.5a.243.243,0,0,0-.234.2l-.168,1.188a4.33,4.33,0,0,0-.767.421l-1.122-.449a.281.281,0,0,0-.281.122l-.935,1.552a.224.224,0,0,0,.056.29l.935.739a3.684,3.684,0,0,0,0,.935l-.935.739a.215.215,0,0,0-.056.281l.935,1.562c.056.122.178.122.281.122l1.122-.458a3.6,3.6,0,0,0,.767.43l.168,1.188a.224.224,0,0,0,.234.187h1.8a.224.224,0,0,0,.215-.187l.168-1.188a4.675,4.675,0,0,0,.757-.43l1.113.458c.112,0,.234,0,.3-.122l.935-1.562a.215.215,0,0,0-.056-.281L19.72,15.5a3.741,3.741,0,0,0,0-.458,2.5,2.5,0,0,0,0-.449l.935-.739a.234.234,0,0,0,.056-.29l-.935-1.552c-.056-.122-.178-.122-.29-.122l-1.122.486a3.806,3.806,0,0,0-.767-.421l-.168-1.188a.215.215,0,0,0-.206-.2h-1.7m-6.312,1.8c-3.984,0-7.21,1.59-7.21,3.581v1.8h8.725a6.218,6.218,0,0,1,0-5.321,12.68,12.68,0,0,0-1.515-.056m7.107,1.337a1.356,1.356,0,1,1-1.243,1.351A1.356,1.356,0,0,1,16.317,13.709Z" transform="translate(-2 -3.32)"/>
</svg>
