<svg xmlns="http://www.w3.org/2000/svg" width="30.164" height="19.239" viewBox="0 0 30.164 19.239">
  <g id="_1" data-name="1" transform="translate(-54.13 -136.52)">
    <path id="Caminho_19" data-name="Caminho 19" d="M83.168,138.771H55.256a1.126,1.126,0,1,1,0-2.251H83.168a1.126,1.126,0,1,1,0,2.251Z" fill="#f2f2f2"/>
    <path id="Caminho_20" data-name="Caminho 20" d="M83.168,251.971H55.256a1.126,1.126,0,1,1,0-2.251H83.168a1.126,1.126,0,1,1,0,2.251Z" transform="translate(0 -104.706)" fill="#f2f2f2"/>
    <path id="Caminho_21" data-name="Caminho 21" d="M83.168,365.171H55.256a1.125,1.125,0,1,1,0-2.251H83.168a1.126,1.126,0,0,1,0,2.251Z" transform="translate(0 -209.412)" fill="#f2f2f2"/>
  </g>
</svg>
