<svg xmlns="http://www.w3.org/2000/svg" width="327.176" height="184.4" viewBox="0 0 327.176 184.4">
  <g id="botao-hamburguer" transform="translate(-54.13 -172.52)">
    <path id="Caminho_19" data-name="Caminho 19" d="M369.1,166.52H66.338c-6.742,0-12.208-6.716-12.208-15s5.466-15,12.208-15H369.1c6.742,0,12.208,6.716,12.208,15s-5.466,15-12.208,15Z" transform="translate(0 36)"/>
    <path id="Caminho_20" data-name="Caminho 20" d="M369.1,279.72H66.338c-6.742,0-12.208-6.716-12.208-15s5.466-15,12.208-15H369.1c6.742,0,12.208,6.716,12.208,15s-5.466,15-12.208,15Z"/>
    <path id="Caminho_21" data-name="Caminho 21" d="M369.1,392.92H66.338c-6.742,0-12.208-6.716-12.208-15s5.466-15,12.208-15H369.1c6.742,0,12.208,6.716,12.208,15s-5.466,15-12.208,15Z" transform="translate(0 -36)"/>
  </g>
</svg>
