<svg xmlns="http://www.w3.org/2000/svg" width="18.741" height="18.741" viewBox="0 0 18.741 18.741">
  <defs>
    <style>
      .cls-1 {
        fill: #f2f2f2;
        fill-rule: evenodd;
      }
    </style>
  </defs>
  <path id="Caminho_56" data-name="Caminho 56" class="cls-1" d="M0,8.7V10.04a2.008,2.008,0,0,0,1.793,2q.128.365.29.713A2.008,2.008,0,0,0,2.2,15.456l.947.947a2.008,2.008,0,0,0,2.652.166,7.994,7.994,0,0,0,.9.381,2.008,2.008,0,0,0,2,1.793h1.339a2.008,2.008,0,0,0,2-1.792,7.98,7.98,0,0,0,.821-.341,2.008,2.008,0,0,0,2.6-.206l.947-.947a2.009,2.009,0,0,0,.206-2.6,7.993,7.993,0,0,0,.341-.82,2.008,2.008,0,0,0,1.792-2V8.7a2.008,2.008,0,0,0-1.792-2,7.983,7.983,0,0,0-.381-.9A2.008,2.008,0,0,0,16.4,3.15L15.456,2.2a2.008,2.008,0,0,0-2.706-.122q-.348-.162-.714-.29a2.008,2.008,0,0,0-2-1.791H8.7a2.008,2.008,0,0,0-2,1.792,7.992,7.992,0,0,0-.8.331A2.008,2.008,0,0,0,3.151,2.2L2.2,3.15A2.008,2.008,0,0,0,2.124,5.9a7.989,7.989,0,0,0-.331.8A2.008,2.008,0,0,0,0,8.7ZM10.709,2.008a.669.669,0,0,0-.669-.669H8.7a.669.669,0,0,0-.669.669v.256a.718.718,0,0,1-.531.678A6.653,6.653,0,0,0,6.148,3.5a.718.718,0,0,1-.855-.1L5.044,3.15a.669.669,0,0,0-.947,0L3.151,4.1a.669.669,0,0,0,0,.947l.249.249a.718.718,0,0,1,.1.855A6.652,6.652,0,0,0,2.942,7.5a.718.718,0,0,1-.678.531H2.008a.669.669,0,0,0-.669.669V10.04a.669.669,0,0,0,.669.669h.257a.718.718,0,0,1,.678.531,6.65,6.65,0,0,0,.519,1.275.718.718,0,0,1-.109.846l-.2.2a.669.669,0,0,0,0,.947l.947.947a.669.669,0,0,0,.947,0l.163-.163a.718.718,0,0,1,.863-.1,6.652,6.652,0,0,0,1.43.6.718.718,0,0,1,.531.678v.257A.669.669,0,0,0,8.7,17.4h1.339a.669.669,0,0,0,.669-.669v-.256a.718.718,0,0,1,.531-.678,6.649,6.649,0,0,0,1.354-.561.718.718,0,0,1,.855.1l.114.114a.669.669,0,0,0,.947,0l.947-.947a.669.669,0,0,0,0-.947l-.114-.114a.718.718,0,0,1-.1-.855A6.651,6.651,0,0,0,15.8,11.24a.718.718,0,0,1,.678-.531h.256a.669.669,0,0,0,.669-.669V8.7a.669.669,0,0,0-.669-.669h-.256A.718.718,0,0,1,15.8,7.5a6.652,6.652,0,0,0-.6-1.431.718.718,0,0,1,.1-.863l.162-.162a.669.669,0,0,0,0-.947l-.947-.947a.669.669,0,0,0-.947,0l-.2.2a.718.718,0,0,1-.846.109,6.65,6.65,0,0,0-1.276-.519.718.718,0,0,1-.531-.678Z"/>
</svg>
