<svg xmlns="http://www.w3.org/2000/svg" width="27.501" height="27.094" viewBox="0 0 27.501 27.094">
  <defs>
    <style>
      .cls-1 {
        fill: #f2f2f2;
      }
    </style>
  </defs>
  <g id="cesta" transform="translate(0)">
    <path id="Caminho_7" data-name="Caminho 7" class="cls-1" d="M29.6,13.8a4.393,4.393,0,0,0-2.988-1.494H25.467L22.3,4.4a.879.879,0,1,0-1.626.615L23.6,12.307H9.936l2.9-7.381a.857.857,0,1,0-1.6-.527L8.069,12.307H6.992a3.185,3.185,0,0,0-.615,0A4.262,4.262,0,0,0,3.17,17.58L4.8,27.289A4.064,4.064,0,0,0,8.684,30.76H25.049a4.042,4.042,0,0,0,3.822-3.581l1.626-9.6a5.512,5.512,0,0,0,0-.593A4.393,4.393,0,0,0,29.6,13.8Zm-.813,3.383-1.648,9.8a2.372,2.372,0,0,1-2.2,2.2H8.728a2.351,2.351,0,0,1-2.2-2.2L4.883,17.118a2.5,2.5,0,0,1,1.867-3.01H26.543a2.548,2.548,0,0,1,2.2,2.724,1.626,1.626,0,0,1,.044.351Z" transform="translate(-3.023 -3.666)"/>
    <path id="Caminho_8" data-name="Caminho 8" class="cls-1" d="M7.273,10.2a.879.879,0,0,0-.857.879V16.9a.879.879,0,1,0,1.735,0V11.079a.879.879,0,0,0-.879-.879Z" transform="translate(1.024 4.153)"/>
    <path id="Caminho_9" data-name="Caminho 9" class="cls-1" d="M9.737,10.2a.857.857,0,0,0-.857.879V16.9a.857.857,0,0,0,.857.879.879.879,0,0,0,.879-.879V11.079a.879.879,0,0,0-.879-.879Z" transform="translate(3.986 4.153)"/>
    <path id="Caminho_10" data-name="Caminho 10" class="cls-1" d="M12.219,10.2a.879.879,0,0,0-.879.879V16.9a.879.879,0,0,0,.879.879.857.857,0,0,0,.857-.879V11.079a.857.857,0,0,0-.857-.879Z" transform="translate(6.93 4.153)"/>
  </g>
</svg>
