<svg id="Ebene_1" xmlns="http://www.w3.org/2000/svg" width="21.489" height="26.546" viewBox="0 0 21.489 26.546">
  <defs>
    <style>
      .cls-1 {
        fill: #f28705;
      }
    </style>
  </defs>
  <g id="Grupo_1" data-name="Grupo 1">
    <path id="Caminho_1" data-name="Caminho 1" class="cls-1" d="M22.329,10.849h-.7a3.147,3.147,0,0,0-1.014-1.727,2.525,2.525,0,0,0-1.672-4.584,3.765,3.765,0,0,0-5.224-2.15A3.109,3.109,0,0,0,12.217,2,3.168,3.168,0,0,0,9.254,4.059,3.154,3.154,0,1,0,5.264,8.939v5.07a1.893,1.893,0,0,0,1.264,1.78v9.6a3.164,3.164,0,0,0,3.16,3.16h8.849a3.164,3.164,0,0,0,3.16-3.16V20.961h.632a3.164,3.164,0,0,0,3.16-3.16V14.009A3.164,3.164,0,0,0,22.329,10.849ZM5.264,6.424a1.9,1.9,0,1,1,3.792,0,.632.632,0,0,0,.632.632h.35a.632.632,0,0,0,.546-.951,1.858,1.858,0,0,1-.264-.946,1.9,1.9,0,0,1,1.9-1.9,1.873,1.873,0,0,1,1.111.369.632.632,0,0,0,.709.024,2.506,2.506,0,0,1,3.825,1.736.632.632,0,0,0,.853.488A1.263,1.263,0,1,1,18.1,7.726a.633.633,0,0,0-.973-.118,2.537,2.537,0,0,1-3.266.193.633.633,0,0,0-1.014.5v1.911a.632.632,0,0,1-1.264,0V8.952a.632.632,0,0,0-.632-.632H8.424a.632.632,0,0,0-.632.632v5.056a.632.632,0,0,1-1.264,0V8.6a.631.631,0,0,0-.315-.546A1.878,1.878,0,0,1,5.264,6.424ZM20.433,25.386a1.9,1.9,0,0,1-1.9,1.9H9.688a1.9,1.9,0,0,1-1.9-1.9v-9.6a1.893,1.893,0,0,0,1.264-1.78V9.585H10.32v.632a1.9,1.9,0,0,0,3.792,0V9.363a3.815,3.815,0,0,0,3.374-.423,2.527,2.527,0,0,0,.535.356.622.622,0,0,0,.516.288,1.9,1.9,0,0,1,1.9,1.9ZM24.225,17.8a1.9,1.9,0,0,1-1.9,1.9H21.7V12.113h.632a1.9,1.9,0,0,1,1.9,1.9Z" transform="translate(-4 -2)"/>
    <path id="Caminho_2" data-name="Caminho 2" class="cls-1" d="M9.632,12A.632.632,0,0,0,9,12.632v7.585a.632.632,0,0,0,1.264,0V12.632A.632.632,0,0,0,9.632,12Z" transform="translate(-2.68 0.641)"/>
    <path id="Caminho_3" data-name="Caminho 3" class="cls-1" d="M12.132,12a.632.632,0,0,0-.632.632v7.585a.632.632,0,0,0,1.264,0V12.632A.632.632,0,0,0,12.132,12Z" transform="translate(-2.019 0.641)"/>
    <path id="Caminho_4" data-name="Caminho 4" class="cls-1" d="M14.632,12a.632.632,0,0,0-.632.632v7.585a.632.632,0,0,0,1.264,0V12.632A.632.632,0,0,0,14.632,12Z" transform="translate(-1.359 0.641)"/>
    <path id="Caminho_5" data-name="Caminho 5" class="cls-1" d="M13.132,4.764a.633.633,0,0,1,.632.632.632.632,0,1,0,1.264,0,1.9,1.9,0,0,0-1.9-1.9.632.632,0,1,0,0,1.264Z" transform="translate(-1.755 -1.604)"/>
  </g>
</svg>
