<svg xmlns="http://www.w3.org/2000/svg" width="27.447" height="23.277" viewBox="0 0 27.447 23.277">
  <defs>
    <style>
      .cls-1 {
        fill: #f2f2f2;
      }
    </style>
  </defs>
  <g id="Layer_54" data-name="Layer 54" transform="translate(0)">
    <path id="Caminho_11" data-name="Caminho 11" class="cls-1" d="M14.734,26.566a2.746,2.746,0,0,1-1.95-.805L3.357,16.333A7.981,7.981,0,0,1,1.05,10.612,7.377,7.377,0,0,1,8.5,3.29a7.377,7.377,0,0,1,5.318,2.188l.915.915.751-.751h0a7.679,7.679,0,0,1,10.068-.815,7.551,7.551,0,0,1,.741,11.313l-9.611,9.62a2.746,2.746,0,0,1-1.95.805ZM8.464,5.111a5.6,5.6,0,0,0-3.9,1.574,5.492,5.492,0,0,0-1.684,3.963,6.151,6.151,0,0,0,1.785,4.393l9.428,9.428a.915.915,0,0,0,1.3,0l9.62-9.629a5.721,5.721,0,0,0,1.62-4.393,5.657,5.657,0,0,0-2.224-4.165,5.83,5.83,0,0,0-7.661.65l-1.364,1.4a.915.915,0,0,1-1.3,0L12.528,6.777A5.748,5.748,0,0,0,8.5,5.111Z" transform="translate(-1.049 -3.29)"/>
  </g>
</svg>
