<svg id="French_fries" xmlns="http://www.w3.org/2000/svg" width="24.057" height="27.141" viewBox="0 0 24.057 27.141">
  <defs>
    <style>
      .cls-1 {
        fill: #f28705;
      }
    </style>
  </defs>
  <path id="Caminho_40" data-name="Caminho 40" class="cls-1" d="M197.149,353.377a4.717,4.717,0,0,0-2.205-.514c-1.919,0-3.474,1.012-3.474,2.26,0,1,1.006,1.855,2.4,2.149a5.208,5.208,0,0,0,1.077.111c1.919,0,3.475-1.012,3.475-2.26A2.088,2.088,0,0,0,197.149,353.377Z" transform="translate(-182.752 -334.038)"/>
  <path id="Caminho_41" data-name="Caminho 41" class="cls-1" d="M65.926,33.621l-1.392-.927a.449.449,0,0,0-.3-.073h0l-1.124.122a.45.45,0,0,0-.373.207q-.481.747-.916,1.518L60.353,33.7a.449.449,0,0,0-.3-.041h0l-.278.061q.31-.922.685-1.824a.45.45,0,0,0-.236-.587l-1.533-.667a.448.448,0,0,0-.306-.019h0l-1.084.318a.45.45,0,0,0-.332.27q-.542,1.3-.959,2.634-.161-1.372-.381-2.737a.414.414,0,0,0-.251-.321q-.425-.263-.852-.516a.372.372,0,0,0-.268-.055l-2.185.39a.389.389,0,0,0-.312.449q.227,1.32.4,2.647-.4-1.262-.914-2.492a.45.45,0,0,0-.337-.27h.008l-1.086-.319h0a.448.448,0,0,0-.306.019l-1.533.667a.45.45,0,0,0-.236.587q.357.858.654,1.734l-.157-.015a.646.646,0,0,0-.281.036.973.973,0,0,0-.115.049l-1.468.765q-.435-.771-.917-1.518a.448.448,0,0,0-.378-.206h0l-1.124-.122h0a.449.449,0,0,0-.3.073l-1.392.927a.451.451,0,0,0-.129.619,27.877,27.877,0,0,1,2.481,4.837,1.745,1.745,0,0,0-.309.962,1.984,1.984,0,0,0,.04.381c.01.037.021.08.033.126l2.606,13.937c.239,1.6,3.382,2.871,7.226,2.871s6.987-1.268,7.227-2.871L64.062,40.5q.011-.031.019-.06a2.05,2.05,0,0,0,.043-.4,1.854,1.854,0,0,0-.465-1.176,27.92,27.92,0,0,1,2.4-4.623.451.451,0,0,0-.129-.619Zm-9.792,1.443a29.776,29.776,0,0,1,1.252-3.655l1.5.654a28.321,28.321,0,0,0-1.523,4.866c.058-.151-.634,1.755-.942,2.886,0-.006,0-.012,0-.018q-.061-2.374-.3-4.739Zm.606,5.377A30.082,30.082,0,0,1,59,34.373l.723.377.731.381a28.251,28.251,0,0,0-2.864,9.9,4.547,4.547,0,0,1-1.713.818h0a30.085,30.085,0,0,1,.859-5.4Zm-1.571-9.2a64.746,64.746,0,0,1,.812,10.412l0-.013a30.5,30.5,0,0,0-.578,4.3h0a6.316,6.316,0,0,1-1.053.088c-.2,0-.4-.01-.592-.028a62.744,62.744,0,0,0-.621-14.423Zm-4.359.165a29.993,29.993,0,0,1,1.644,5.267,61.417,61.417,0,0,1,.139,7.233,30.5,30.5,0,0,0-1.764-6.98,28.3,28.3,0,0,0-1.523-4.867Zm-2.343,3.343.725-.378A30.028,30.028,0,0,1,52.3,45.683a6.476,6.476,0,0,1-1.771-1.275,28.315,28.315,0,0,0-2.795-9.277l.729-.38Zm-4.757-.625,1.365-.909q.559.869,1.058,1.776a.455.455,0,0,0,.032.085,27.919,27.919,0,0,1,2.613,8.129,14.093,14.093,0,0,1-1.363-.42,28.24,28.24,0,0,0-3.706-8.661ZM60.7,54.344q0,.014,0,.027c-.071.478-.758,1.031-1.792,1.444a14.443,14.443,0,0,1-9.367,0c-1.034-.413-1.721-.966-1.792-1.444q0-.014,0-.027L45.575,42.768a12.661,12.661,0,0,0,3.581,1.309.853.853,0,0,1,.568.452A3.886,3.886,0,0,0,51.568,46.2a6.808,6.808,0,0,0,5.6-.014,3.835,3.835,0,0,0,1.841-1.707.855.855,0,0,1,.566-.465,12.3,12.3,0,0,0,3.288-1.242Zm.057-11.463c-.42.144-.872.274-1.351.389a27.92,27.92,0,0,1,2.623-8.192.454.454,0,0,0,.032-.084q.5-.907,1.058-1.777l1.365.909a28.287,28.287,0,0,0-3.728,8.756Z" transform="translate(-42.07 -30.213)"/>
</svg>
