<svg xmlns="http://www.w3.org/2000/svg" xmlns:xlink="http://www.w3.org/1999/xlink" width="28.013" height="24.678" viewBox="0 0 28.013 24.678">
  <defs>
    <style>
      .cls-1 {
        fill: #f28705;
      }

      .cls-2 {
        clip-path: url(#clip-path);
      }
    </style>
    <clipPath id="clip-path">
      <rect id="Retângulo_1" data-name="Retângulo 1" class="cls-1" width="28.013" height="24.678"/>
    </clipPath>
  </defs>
  <g id="hambuger" class="cls-2">
    <path id="Caminho_12" data-name="Caminho 12" class="cls-1" d="M2.116,21.209a.568.568,0,0,0-.126-.045C.945,21.1.468,20.536.679,19.507a7.413,7.413,0,0,1,.584-1.715,4.416,4.416,0,0,1,.759-.887,5.036,5.036,0,0,1-.243-1.154,5.06,5.06,0,0,1,.295-1.166c-.825-.77-.848-.935-.263-2.27a1.375,1.375,0,0,1-.309-1.2A13.694,13.694,0,0,1,2.3,7.392,10.535,10.535,0,0,1,8.775,1.2a15.565,15.565,0,0,1,11.159.11A9.138,9.138,0,0,1,24.226,4.5a9.378,9.378,0,0,1,1.066,1.874c.374.931.64,1.906.921,2.872a2.07,2.07,0,0,1-.233,1.983,2.959,2.959,0,0,1,1.046,1.277,1.634,1.634,0,0,1-.271,1.529,1.9,1.9,0,0,1,.406,2.087,3.067,3.067,0,0,1,1.151,1.43,3.934,3.934,0,0,1,.226.991,1.386,1.386,0,0,1-1.426,1.7c-.026.49-.03.978-.08,1.461a2,2,0,0,1-1.6,1.854,21.975,21.975,0,0,1-2.691.467c-1.7.2-3.4.395-5.1.53a51.121,51.121,0,0,1-8.437.08c-1.571-.135-3.14-.308-4.705-.5a6.281,6.281,0,0,1-1.319-.345A1.365,1.365,0,0,1,2.237,22.6C2.178,22.138,2.154,21.666,2.116,21.209Zm23.076-10.53c-.242-1.015-.438-1.98-.706-2.924a7.837,7.837,0,0,0-1.313-2.7,8.867,8.867,0,0,0-4.063-2.827A14.182,14.182,0,0,0,11.7,1.578,10.375,10.375,0,0,0,3.679,7.043a13.608,13.608,0,0,0-1.254,4.148,3.492,3.492,0,0,0,.567.181,13.113,13.113,0,0,0,1.919.208c2.508-.041,5.016-.137,7.524-.2,2.034-.051,4.068-.083,6.1-.126a40.89,40.89,0,0,0,5.571-.368C24.458,10.83,24.805,10.753,25.192,10.678Zm-1.725,8.845c-.31.24-.6.445-.872.678a1.279,1.279,0,0,1-1.577.188,5.579,5.579,0,0,1-.64-.37,1.242,1.242,0,0,0-1.576-.043,10.347,10.347,0,0,1-1.143.639,2.223,2.223,0,0,1-2.083.013c-.289-.143-.574-.3-.849-.464a1.036,1.036,0,0,0-1.082-.056c-.336.175-.672.353-.992.556a1.634,1.634,0,0,1-1.629.133,4.953,4.953,0,0,1-.938-.531,1.286,1.286,0,0,0-1.492-.109c-.3.162-.585.353-.873.536a1.84,1.84,0,0,1-2.186-.052c-.173-.117-.336-.249-.5-.379a1.043,1.043,0,0,0-1.319-.053c-.2.13-.381.292-.543.417.067.425.114.783.179,1.137.141.777.19.824.951.985.056.012.113.015.169.025a48.155,48.155,0,0,0,7.146.664A77.757,77.757,0,0,0,23.1,22.6c.583-.072,1.161-.188,1.736-.31a.83.83,0,0,0,.687-.8c.033-.351.061-.7.095-1.087A2.487,2.487,0,0,1,23.467,19.523Zm-21.7.567c.259-.131.462-.221.651-.333s.372-.264.566-.383a2.074,2.074,0,0,1,2.632.158q.178.142.354.288a.934.934,0,0,0,1.2.074,9.968,9.968,0,0,1,.927-.556,2.173,2.173,0,0,1,2.462.183,4.716,4.716,0,0,0,.628.388.908.908,0,0,0,1.017-.054,6.7,6.7,0,0,1,.987-.563,1.954,1.954,0,0,1,2.006.121c.173.116.361.211.539.319a1.49,1.49,0,0,0,1.618.026c.362-.208.73-.408,1.083-.631a1.986,1.986,0,0,1,2.251.006c.932.562.94.549,1.8-.1a1.533,1.533,0,0,1,2.041-.061c.217.139.426.289.656.445.3-.374.384-.987.926-.949a4.937,4.937,0,0,1,1.256.44,1.627,1.627,0,0,0-.724-2.14c-.632.189-1.2.41-1.792.528a59.32,59.32,0,0,1-6.683.7c-1.091.092-2.185-.043-3.275.09a2,2,0,0,1-.649-.16,2.729,2.729,0,0,0-.64-.147c-2.262,0-4.524.055-6.785.025-1.078-.014-2.155-.179-3.234-.26a1.46,1.46,0,0,0-.606.079A2.342,2.342,0,0,0,1.769,20.09ZM9.4,12.535l.019.115c1.528,1.186,3.048,2.381,4.588,3.552.795.6.682.819,1.549-.107,1.012-1.081,1.976-2.206,2.958-3.315.083-.094.149-.2.3-.413Zm3.2,4.115c-.585-.492-1.07-.885-1.538-1.3a.96.96,0,0,0-.723-.226,45.8,45.8,0,0,1-6.324-.012,3.671,3.671,0,0,0-.789.057c-.255.025-.349.2-.371.429a.535.535,0,0,0,.456.626,6.34,6.34,0,0,0,1.342.24c2.45.087,4.9.146,7.353.212.147,0,.295-.013.594-.028Zm13.488-2.1a19.669,19.669,0,0,1-2.029.507,39.1,39.1,0,0,1-5.844.415.539.539,0,0,0-.356.093c-.365.375-.706.772-1.1,1.212.571,0,1.042.03,1.509-.005,1.7-.128,3.409-.247,5.107-.43a13.274,13.274,0,0,0,2.391-.487c.7-.211.8-.729.323-1.3ZM19,14.194c.258,0,.41.008.56,0,1.25-.08,2.506-.116,3.748-.263a13,13,0,0,0,2.316-.548c.483-.15.578-.429.443-.831a.8.8,0,0,0-.912-.632,23.232,23.232,0,0,1-4.074.4c-.263,0-.525.025-.7.033ZM2.893,12.335a7.391,7.391,0,0,0-.364.746c-.127.358-.08.476.293.6a6.191,6.191,0,0,0,1.16.272,30.3,30.3,0,0,0,4.839.072,3.233,3.233,0,0,0,.433-.083c-.26-.2-.435-.338-.619-.467a4.277,4.277,0,0,1-.834-.589.847.847,0,0,0-.745-.286A16.667,16.667,0,0,1,2.893,12.335Z" transform="translate(-0.626 -0.191)"/>
    <path id="Caminho_13" data-name="Caminho 13" class="cls-1" d="M69.044,20.582c.025-.221-.013-.452.25-.536a.439.439,0,0,1,.559.271,3.809,3.809,0,0,1,.27.742.445.445,0,0,1-.251.569.458.458,0,0,1-.6-.291A6.457,6.457,0,0,1,69.044,20.582Z" transform="translate(-57.452 -16.634)"/>
    <path id="Caminho_14" data-name="Caminho 14" class="cls-1" d="M38.829,41.438c.084.059.29.128.323.245a.608.608,0,0,1-.1.5,1.5,1.5,0,0,1-1.085.415c-.29.011-.419-.321-.222-.592A1.434,1.434,0,0,1,38.829,41.438Z" transform="translate(-31.372 -34.424)"/>
    <path id="Caminho_15" data-name="Caminho 15" class="cls-1" d="M123.416,50.911c-.184-.137-.388-.215-.44-.351a.492.492,0,0,1,.175-.424,2.238,2.238,0,0,1,.752-.376.529.529,0,0,1,.474.171.519.519,0,0,1-.107.492A5.453,5.453,0,0,1,123.416,50.911Z" transform="translate(-102.242 -41.33)"/>
    <path id="Caminho_16" data-name="Caminho 16" class="cls-1" d="M89.129,43.864c-.016-.37.262-.555.566-.416a1.32,1.32,0,0,1,.543,1.058.349.349,0,0,1-.547.264A1.436,1.436,0,0,1,89.129,43.864Z" transform="translate(-74.135 -36.056)"/>
    <path id="Caminho_17" data-name="Caminho 17" class="cls-1" d="M115.33,29.414a.97.97,0,0,1-.784.786.322.322,0,0,1-.3-.439,1.885,1.885,0,0,1,.543-.684A.35.35,0,0,1,115.33,29.414Z" transform="translate(-94.976 -24.102)"/>
    <path id="Caminho_18" data-name="Caminho 18" class="cls-1" d="M58.136,55.127a.9.9,0,0,1-.752-.721.422.422,0,0,1,.464-.394.846.846,0,0,1,.582.759C58.424,54.989,58.35,55.144,58.136,55.127Z" transform="translate(-47.767 -44.867)"/>
  </g>
</svg>
