<svg id="Capa_2" data-name="Capa 2" xmlns="http://www.w3.org/2000/svg" width="24.432" height="26.31" viewBox="0 0 24.432 26.31">
  <defs>
    <style>
      .cls-1 {
        fill: #f28705;
      }
    </style>
  </defs>
  <g id="Outline">
    <g id="Pizza" transform="translate(0)">
      <path id="Caminho_33" data-name="Caminho 33" class="cls-1" d="M.06,4.9,7.391,18.116l.91,1.64h0l3.5,6.312a.47.47,0,0,0,.823,0L24.373,4.9a.47.47,0,0,0-.131-.606A24.57,24.57,0,0,0,20.579,2.15,19.97,19.97,0,0,0,12.217,0,19.348,19.348,0,0,0,3.854,2.15,24.463,24.463,0,0,0,.191,4.3.47.47,0,0,0,.06,4.9Zm9.36,14.92A3.147,3.147,0,1,0,6.4,14.38L2.65,7.63c2.172-1.3,5.785-3.455,9.567-3.455s7.4,2.154,9.567,3.455L12.216,24.868Zm-1.476-2.66L6.862,15.214a2.206,2.206,0,1,1,2.095,3.775ZM1.089,4.821C2.379,3.947,7.185.942,12.217.942s9.837,3,11.127,3.879l-1.1,1.987c-2.259-1.354-6-3.575-10.025-3.575S4.451,5.453,2.192,6.806Z" transform="translate(-0.001)"/>
      <path id="Caminho_34" data-name="Caminho 34" class="cls-1" d="M212,127.259a3.538,3.538,0,1,0,3.538-3.539A3.538,3.538,0,0,0,212,127.259Zm.942,0a2.6,2.6,0,1,1,2.6,2.6A2.6,2.6,0,0,1,212.942,127.259Z" transform="translate(-200.253 -116.865)"/>
      <path id="Caminho_35" data-name="Caminho 35" class="cls-1" d="M89.794,143.273a2.012,2.012,0,1,0-2.012,2.011A2.012,2.012,0,0,0,89.794,143.273Zm-.942,0a1.07,1.07,0,1,1-1.069-1.07A1.07,1.07,0,0,1,88.852,143.273Z" transform="translate(-81.018 -133.433)"/>
      <path id="Caminho_36" data-name="Caminho 36" class="cls-1" d="M223.991,304.24a.471.471,0,1,1-.284.9,1.274,1.274,0,0,0-1.6.828.471.471,0,0,1-.9-.285A2.216,2.216,0,0,1,223.991,304.24Z" transform="translate(-208.934 -287.284)"/>
      <path id="Caminho_37" data-name="Caminho 37" class="cls-1" d="M242.874,149.91a.194.194,0,1,1-.117.37,1.7,1.7,0,0,0-2.132,1.105.194.194,0,0,1-.37-.117A2.088,2.088,0,0,1,242.874,149.91Z" transform="translate(-226.934 -141.512)"/>
      <path id="Caminho_38" data-name="Caminho 38" class="cls-1" d="M154.927,272.645a1.939,1.939,0,0,1,1.025,2.541.194.194,0,1,1-.357-.152,1.552,1.552,0,0,0-.818-2.032.194.194,0,1,1,.152-.357Z" transform="translate(-146.089 -257.523)"/>
      <path id="Caminho_39" data-name="Caminho 39" class="cls-1" d="M153.27,113.617a.459.459,0,0,1-.132-.019.47.47,0,0,1-.32-.584.883.883,0,0,0-.6-1.093.471.471,0,1,1,.264-.9,1.825,1.825,0,0,1,1.239,2.261A.471.471,0,0,1,153.27,113.617Z" transform="translate(-143.462 -104.847)"/>
    </g>
  </g>
</svg>
